# xmcd
#
# Track frame offsets: 
#        150
#        14964
#        28444
#        42810
#        55584
#        70783
#        85733
#        98756
#        112785
#        123931
#        138819
#        150173
#        165238
#        180247
#        195018
#
# Disc length: 2735 seconds
#
# Revision: 0
# Processed by: cddbd v1.5.2PL0 Copyright (c) Steve Scherf et al.
# Submitted via: ExactAudioCopy v0.99pb5
#
DISCID=a50aad0f
DTITLE=George Jones - The Music Of George Jones: The Epic Years [CD
DTITLE=2) Hits: The 1980's
DYEAR=2010
DGENRE=Country
TTITLE0=He Stopped Loving Her Today
TTITLE1=I'm Not Ready Yet
TTITLE2=If Drinkin' Don't Kill Me (Her Memory Will)
TTITLE3=Still Doin' Time
TTITLE4=Shine On (Shine All Your Sweet Love On Me)
TTITLE5=I Always Get Lucky With You
TTITLE6=Tennessee Whiskey
TTITLE7=You've Still Got A Place In My Heart
TTITLE8=She's My Rock
TTITLE9=Who's Gonna Fill Their Shoes
TTITLE10=The One I Loved Back Then (The Corvette Song)
TTITLE11=Somebody Wants Me Out Of The Way
TTITLE12=Wine Colored Roses
TTITLE13=The Right Left Hand
TTITLE14=I'm A One Woman Man
EXTD=
EXTT0=
EXTT1=
EXTT2=
EXTT3=
EXTT4=
EXTT5=
EXTT6=
EXTT7=
EXTT8=
EXTT9=
EXTT10=
EXTT11=
EXTT12=
EXTT13=
EXTT14=
PLAYORDER=
